<?xml version="1.0" encoding="UTF-8"?>
<svg id="Layer_1" data-name="Layer 1" xmlns="http://www.w3.org/2000/svg" xmlns:xlink="http://www.w3.org/1999/xlink" viewBox="0 0 500 250">
  <defs>
    <style>
      .cls-1 {
        fill: url(#Degradado_sin_nombre_14);
      }

      .cls-1, .cls-2 {
        stroke-width: 0px;
      }

      .cls-2 {
        fill: #000059;
      }
    </style>
    <linearGradient id="Degradado_sin_nombre_14" data-name="Degradado sin nombre 14" x1="20.44" y1="125.17" x2="214.4" y2="125.17" gradientUnits="userSpaceOnUse">
      <stop offset="0" stop-color="#00ebaa"/>
      <stop offset=".32" stop-color="#25e6bf"/>
      <stop offset=".77" stop-color="#54e1db"/>
      <stop offset="1" stop-color="#67e0e6"/>
    </linearGradient>
  </defs>
  <path class="cls-2" d="m479,63.81c0,4.94-3.71,8.65-8.7,8.65s-8.74-3.71-8.74-8.65,3.76-8.57,8.74-8.57,8.7,3.67,8.7,8.57m-2.33,0c0-3.76-2.7-6.45-6.37-6.45s-6.37,2.73-6.37,6.45,2.69,6.53,6.37,6.53,6.37-2.78,6.37-6.53m-5.55.86l3.27,3.88h-2.12l-3.22-3.84v3.84h-1.84v-9.55h3.26c2.25,0,3.68,1.06,3.68,2.86,0,1.63-1.14,2.65-3.02,2.82m-2.08-3.96v2.41h1.47c1.14,0,1.71-.41,1.71-1.23s-.49-1.18-1.71-1.18h-1.47Z"/>
  <path class="cls-2" d="m249.47,193.14V57.51c0-1.25,1.02-2.27,2.27-2.27h52.6c14.42,0,26.23,4.41,35.64,13.02,9.41,8.61,14.02,19.62,14.02,33.24,0,17.39-9.3,32.05-22.86,39.79-1.08.61-1.45,1.99-.84,3.07l26.81,47.68c.85,1.51-.24,3.38-1.98,3.38h-29.97c-.85,0-1.64-.48-2.02-1.24l-22.57-44.38c-.39-.76-1.17-1.24-2.02-1.24h-15.16c-1.25,0-2.27,1.02-2.27,2.27v42.32c0,1.25-1.02,2.27-2.27,2.27h-27.1c-1.25,0-2.27-1.02-2.27-2.27Zm31.64-73.89c0,1.25,1.02,2.27,2.27,2.27h18.16c12.01,0,20.03-7.41,20.03-20.03,0-11.81-7.81-19.22-20.43-19.22h-17.76c-1.25,0-2.27,1.02-2.27,2.27v34.71Z"/>
  <path class="cls-2" d="m411.61,102.89c29.43,0,49.67,19.36,49.67,45.14s-20.47,47.08-49.13,47.08-47.6-17.73-48.77-43.13c-.06-1.3.97-2.4,2.27-2.4h29.25c1.18,0,2.12.9,2.26,2.07.89,7.83,6.85,13.24,15,13.24,8.64,0,14.95-7.96,14.95-16.86,0-9.44-6.61-17.23-16.25-17.23h-38.51c-.18,0-.37-.02-.54-.06-3.41-.8-5.27-3.78-4.95-6.74l6.87-66.72c.12-1.16,1.09-2.04,2.26-2.04h73.61c1.25,0,2.27,1.02,2.27,2.27v21.4c0,1.25-1.02,2.27-2.27,2.27h-46.44c-1.19,0-2.17.91-2.26,2.1l-1.31,17.18c-.1,1.32.94,2.44,2.26,2.44h9.78Z"/>
  <path class="cls-1" d="m124.94,147.37c12.57-15.44,21.84-33.85,26.69-54.06,10.02,20.33,29.14,34.7,51.48,36.79v53.57c-30.5-1.5-58-15.11-78.18-36.31m-93.2-17.27c22.34-2.09,41.47-16.47,51.49-36.8,4.85,20.22,14.12,38.63,26.69,54.07-20.17,21.2-47.68,34.8-78.18,36.31v-53.57Zm59.09-63.57h53.21c-1.16,26.44-10.47,51.66-26.6,72.15-16.13-20.49-25.44-45.72-26.6-72.15m-7.55-11.29c-2.13,0-3.86,1.73-3.86,3.86v1.78c0,32.08-23.92,58.19-53.32,58.19h-1.78c-2.13,0-3.86,1.73-3.86,3.86v68.31c0,2.13,1.73,3.86,3.86,3.86h1.78c35.57,0,67.83-14.97,91.24-39.16l.1.11.1-.11c23.4,24.19,55.67,39.16,91.23,39.16h1.78c2.13,0,3.86-1.73,3.86-3.86v-68.31c0-2.13-1.73-3.86-3.86-3.86h-1.78c-29.25,0-53.07-25.84-53.31-57.7v-.25h0v-.04h0v-1.99c0-2.13-1.73-3.86-3.86-3.86h-68.31Z"/>
</svg>